<svg width="40" height="47" viewBox="0 0 40 47" xmlns="http://www.w3.org/2000/svg"><title>Artboard 1</title><g fill="none" fill-rule="evenodd"><path fill="#EC008C" d="M0 0h40v16.114H0z"/><path fill-opacity=".1" fill="#EC008C" d="M0 16.114h40v6.714H0z"/><path opacity=".5" fill="#F4F4F6" d="M1.333 1.343h4v2.014h-4zm36 0h1.333v1.343h-1.333zM16 12.086h8.067v.67H16zm5.33-6.346h-1.992V3.38h-1.343v6.065h1.343v-2.36h1.99v2.36h1.343V3.38h-1.34v2.36zm-7.997 7.69h14.093v.67H13.333zm17.334 2.684h4.242v.67h-4.244z"/><path fill="#4A4A4A" d="M0 40.286h40V47H0z"/><path fill="#F4F4F6" d="M25.144 32.23h9.754v6.042h-9.754z"/><path fill="#C8C8C8" d="M15.39 32.23h9.754v6.042H15.39z"/><path fill="#F4F4F6" d="M5.636 32.23h9.754v6.042H5.636z"/><path fill="#C8C8C8" d="M25.144 26.186h9.754v6.043h-9.754z"/><path fill="#F4F4F6" d="M15.39 26.186h9.754v6.043H15.39z"/><path fill="#C8C8C8" d="M5.636 26.186h9.754v6.043H5.636z"/><path fill="#F4F4F6" d="M25.144 20.143h9.754v6.043h-9.754z"/><path fill="#C8C8C8" d="M15.39 20.143h9.754v6.043H15.39z"/><path fill="#F4F4F6" d="M5.636 20.143h9.754v6.043H5.636z"/></g></svg>